<svg xmlns="http://www.w3.org/2000/svg" xmlns:xlink="http://www.w3.org/1999/xlink" width="560" zoomAndPan="magnify" viewBox="0 0 420 89.999999" height="120" preserveAspectRatio="xMidYMid meet" version="1.0"><defs><g/><clipPath id="7ff962224f"><path d="M 9 1.203125 L 96.59375 1.203125 L 96.59375 88.796875 L 9 88.796875 Z M 9 1.203125 " clip-rule="nonzero"/></clipPath><clipPath id="057f5e49fb"><path d="M 52.796875 1.203125 C 28.609375 1.203125 9 20.8125 9 45 C 9 69.1875 28.609375 88.796875 52.796875 88.796875 C 76.984375 88.796875 96.59375 69.1875 96.59375 45 C 96.59375 20.8125 76.984375 1.203125 52.796875 1.203125 Z M 52.796875 1.203125 " clip-rule="nonzero"/></clipPath><clipPath id="6726b2c975"><path d="M 21.945312 14.148438 L 81 14.148438 L 81 73.398438 L 21.945312 73.398438 Z M 21.945312 14.148438 " clip-rule="nonzero"/></clipPath><clipPath id="a4efe2d315"><path d="M 30.558594 26 L 72.558594 26 L 72.558594 64.125 L 30.558594 64.125 Z M 30.558594 26 " clip-rule="nonzero"/></clipPath></defs><g clip-path="url(#7ff962224f)"><g clip-path="url(#057f5e49fb)"><path fill="#25d366" d="M 9 1.203125 L 96.59375 1.203125 L 96.59375 88.796875 L 9 88.796875 Z M 9 1.203125 " fill-opacity="1" fill-rule="nonzero"/></g></g><g clip-path="url(#6726b2c975)"><path fill="#ffffff" d="M 51.429688 73.117188 C 43.554688 73.117188 36.148438 70.050781 30.582031 64.480469 C 25.011719 58.910156 21.945312 51.507812 21.945312 43.632812 C 21.945312 35.757812 25.011719 28.351562 30.582031 22.785156 C 36.148438 17.214844 43.554688 14.148438 51.429688 14.148438 C 59.304688 14.148438 66.707031 17.214844 72.277344 22.785156 C 77.847656 28.351562 80.914062 35.757812 80.914062 43.632812 C 80.914062 48.019531 79.683594 52.085938 79.625 52.269531 C 79.136719 53.878906 78.503906 55.453125 77.742188 56.953125 L 80.632812 71.5625 C 80.691406 71.851562 80.601562 72.148438 80.394531 72.359375 C 80.191406 72.566406 79.894531 72.664062 79.605469 72.613281 L 64.644531 69.988281 C 63.0625 70.785156 61.402344 71.441406 59.703125 71.9375 C 59.535156 71.988281 55.609375 73.117188 51.429688 73.117188 Z M 51.429688 73.117188 " fill-opacity="1" fill-rule="nonzero"/></g><g clip-path="url(#a4efe2d315)"><path fill="#007aff" d="M 31.058594 46.910156 C 32.320312 49.507812 33.578125 52.105469 34.839844 54.707031 C 36.097656 57.304688 37.445312 59.863281 38.636719 62.480469 C 39.027344 63.351562 40.046875 63.871094 40.933594 63.992188 C 41.894531 64.121094 42.894531 63.851562 43.585938 63.121094 C 46.664062 59.894531 49.582031 56.472656 52.46875 53.066406 C 55.371094 49.636719 58.316406 46.25 61.246094 42.851562 C 63.046875 40.769531 64.816406 38.660156 66.496094 36.484375 C 66.324219 36.703125 66.15625 36.921875 65.984375 37.144531 C 66.914062 35.933594 67.863281 34.734375 68.804688 33.535156 C 69.832031 32.234375 70.78125 30.867188 71.753906 29.515625 C 72.300781 28.757812 72.082031 27.445312 71.402344 26.828125 C 70.734375 26.21875 69.503906 25.878906 68.714844 26.476562 C 67.453125 27.4375 66.15625 28.375 64.957031 29.414062 C 63.90625 30.335938 62.855469 31.253906 61.816406 32.175781 C 59.6875 34.0625 57.699219 36.09375 55.757812 38.171875 C 51.929688 42.28125 48.203125 46.519531 44.753906 50.964844 C 43.632812 52.40625 42.523438 53.84375 41.433594 55.296875 C 40.445312 56.605469 39.527344 57.933594 38.636719 59.3125 C 40.445312 59.3125 42.265625 59.3125 44.074219 59.3125 C 42.425781 56.953125 40.925781 54.476562 39.347656 52.078125 C 37.765625 49.648438 36.1875 47.238281 34.609375 44.828125 C 34.019531 43.929688 32.769531 43.46875 31.800781 44.089844 C 30.808594 44.738281 30.558594 45.867188 31.058594 46.910156 Z M 31.058594 46.910156 " fill-opacity="1" fill-rule="nonzero"/></g><g fill="#25d366" fill-opacity="1"><g transform="translate(105.593714, 67.875349)"><g><path d="M 0.890625 0 L 0.890625 -8.71875 L 11.84375 -39.140625 L 1.953125 -39.140625 L 1.953125 -47.96875 L 22 -47.96875 L 22 -39.59375 L 10.78125 -8.828125 L 21.5 -8.828125 L 21.5 0 Z M 0.890625 0 "/></g></g></g><g fill="#25d366" fill-opacity="1"><g transform="translate(134.964297, 67.875349)"><g><path d="M 0.84375 0 L 5.46875 -47.96875 L 21.71875 -47.96875 L 26.296875 0 L 17.203125 0 L 16.53125 -7.765625 L 10.71875 -7.765625 L 10.15625 0 Z M 11.453125 -15.40625 L 15.796875 -15.40625 L 13.6875 -39.8125 L 13.234375 -39.8125 Z M 11.453125 -15.40625 "/></g></g></g><g fill="#25d366" fill-opacity="1"><g transform="translate(168.522599, 67.875349)"><g><path d="M 2.125 -47.96875 L 14.796875 -47.96875 C 18.628906 -47.96875 21.363281 -46.726562 23 -44.25 C 24.644531 -41.78125 25.46875 -38.160156 25.46875 -33.390625 C 25.46875 -28.628906 24.738281 -25.035156 23.28125 -22.609375 C 21.832031 -20.191406 19.226562 -18.984375 15.46875 -18.984375 L 11.5625 -18.984375 L 11.5625 0 L 2.125 0 Z M 12.125 -27.640625 C 13.269531 -27.640625 14.113281 -27.851562 14.65625 -28.28125 C 15.195312 -28.707031 15.550781 -29.320312 15.71875 -30.125 C 15.882812 -30.925781 15.96875 -32.070312 15.96875 -33.5625 C 15.96875 -35.570312 15.742188 -37.023438 15.296875 -37.921875 C 14.847656 -38.816406 13.957031 -39.265625 12.625 -39.265625 L 11.5625 -39.265625 L 11.5625 -27.640625 Z M 12.125 -27.640625 "/></g></g></g><g fill="#25d366" fill-opacity="1"><g transform="translate(201.355025, 67.875349)"><g><path d="M 2.125 -47.96875 L 14.796875 -47.96875 C 18.628906 -47.96875 21.363281 -46.726562 23 -44.25 C 24.644531 -41.78125 25.46875 -38.160156 25.46875 -33.390625 C 25.46875 -28.628906 24.738281 -25.035156 23.28125 -22.609375 C 21.832031 -20.191406 19.226562 -18.984375 15.46875 -18.984375 L 11.5625 -18.984375 L 11.5625 0 L 2.125 0 Z M 12.125 -27.640625 C 13.269531 -27.640625 14.113281 -27.851562 14.65625 -28.28125 C 15.195312 -28.707031 15.550781 -29.320312 15.71875 -30.125 C 15.882812 -30.925781 15.96875 -32.070312 15.96875 -33.5625 C 15.96875 -35.570312 15.742188 -37.023438 15.296875 -37.921875 C 14.847656 -38.816406 13.957031 -39.265625 12.625 -39.265625 L 11.5625 -39.265625 L 11.5625 -27.640625 Z M 12.125 -27.640625 "/></g></g></g><g fill="#25d366" fill-opacity="1"><g transform="translate(234.187459, 67.875349)"><g><path d="M 7.9375 0 L 7.9375 -15.796875 L 0.28125 -47.96875 L 9.765625 -47.96875 L 12.453125 -31.71875 L 15.140625 -47.96875 L 24.625 -47.96875 L 16.96875 -15.796875 L 16.96875 0 Z M 7.9375 0 "/></g></g></g><g fill="#007aff" fill-opacity="1"><g transform="translate(281.965418, 65.116667)"><g><path d="M 2.125 0 L 2.125 -47.96875 L 21.328125 -47.96875 L 21.328125 -38.640625 L 11.78125 -38.640625 L 11.78125 -31 L 20.828125 -31 L 20.828125 -21.78125 L 11.78125 -21.78125 L 11.78125 0 Z M 2.125 0 "/></g></g></g><g fill="#007aff" fill-opacity="1"><g transform="translate(310.724267, 65.116667)"><g><path d="M 2.125 0 L 2.125 -47.96875 L 11.734375 -47.96875 L 11.734375 -8.15625 L 21.609375 -8.15625 L 21.609375 0 Z M 2.125 0 "/></g></g></g><g fill="#007aff" fill-opacity="1"><g transform="translate(339.371434, 65.116667)"><g><path d="M 13.5625 0.453125 C 9.695312 0.453125 6.757812 -0.726562 4.75 -3.09375 C 2.738281 -5.457031 1.734375 -8.78125 1.734375 -13.0625 L 1.734375 -35.90625 C 1.734375 -40.039062 2.738281 -43.160156 4.75 -45.265625 C 6.757812 -47.367188 9.695312 -48.421875 13.5625 -48.421875 C 17.4375 -48.421875 20.378906 -47.367188 22.390625 -45.265625 C 24.398438 -43.160156 25.40625 -40.039062 25.40625 -35.90625 L 25.40625 -13.0625 C 25.40625 -8.75 24.398438 -5.414062 22.390625 -3.0625 C 20.378906 -0.71875 17.4375 0.453125 13.5625 0.453125 Z M 13.5625 -8.375 C 14.425781 -8.375 15.003906 -8.742188 15.296875 -9.484375 C 15.597656 -10.234375 15.75 -11.28125 15.75 -12.625 L 15.75 -36.078125 C 15.75 -37.117188 15.609375 -37.960938 15.328125 -38.609375 C 15.046875 -39.265625 14.476562 -39.59375 13.625 -39.59375 C 12.019531 -39.59375 11.21875 -38.382812 11.21875 -35.96875 L 11.21875 -12.5625 C 11.21875 -11.1875 11.382812 -10.144531 11.71875 -9.4375 C 12.0625 -8.726562 12.675781 -8.375 13.5625 -8.375 Z M 13.5625 -8.375 "/></g></g></g><g fill="#007aff" fill-opacity="1"><g transform="translate(372.988336, 65.116667)"><g><path d="M 5.859375 0 L 0.71875 -47.96875 L 10.109375 -47.96875 L 12.78125 -17.703125 L 15.46875 -47.96875 L 24.40625 -47.96875 L 26.96875 -17.703125 L 29.546875 -47.96875 L 39.03125 -47.96875 L 33.78125 0 L 22.28125 0 L 19.875 -23.125 L 17.59375 0 Z M 5.859375 0 "/></g></g></g></svg>