<svg xmlns="http://www.w3.org/2000/svg" xmlns:xlink="http://www.w3.org/1999/xlink" width="200" zoomAndPan="magnify" viewBox="0 0 150 149.999998" height="200" preserveAspectRatio="xMidYMid meet" version="1.0"><defs><g/><clipPath id="86ad864ba0"><path d="M 10.800781 66.582031 L 60.554688 66.582031 L 60.554688 116.335938 L 10.800781 116.335938 Z M 10.800781 66.582031 " clip-rule="nonzero"/></clipPath><clipPath id="8963d4c109"><path d="M 35.679688 66.582031 C 21.9375 66.582031 10.800781 77.71875 10.800781 91.460938 C 10.800781 105.199219 21.9375 116.335938 35.679688 116.335938 C 49.417969 116.335938 60.554688 105.199219 60.554688 91.460938 C 60.554688 77.71875 49.417969 66.582031 35.679688 66.582031 Z M 35.679688 66.582031 " clip-rule="nonzero"/></clipPath><clipPath id="3cb53f6ea9"><path d="M 18.152344 73.933594 L 51.902344 73.933594 L 51.902344 107.683594 L 18.152344 107.683594 Z M 18.152344 73.933594 " clip-rule="nonzero"/></clipPath><clipPath id="849f67de3d"><path d="M 23.046875 80.597656 L 47 80.597656 L 47 102.347656 L 23.046875 102.347656 Z M 23.046875 80.597656 " clip-rule="nonzero"/></clipPath></defs><g clip-path="url(#86ad864ba0)"><g clip-path="url(#8963d4c109)"><path fill="#25d366" d="M 10.800781 66.582031 L 60.554688 66.582031 L 60.554688 116.335938 L 10.800781 116.335938 Z M 10.800781 66.582031 " fill-opacity="1" fill-rule="nonzero"/></g></g><g clip-path="url(#3cb53f6ea9)"><path fill="#ffffff" d="M 34.898438 107.425781 C 30.425781 107.425781 26.222656 105.683594 23.058594 102.523438 C 19.894531 99.359375 18.152344 95.152344 18.152344 90.679688 C 18.152344 86.207031 19.894531 82.003906 23.058594 78.839844 C 26.222656 75.675781 30.425781 73.933594 34.898438 73.933594 C 39.371094 73.933594 43.578125 75.675781 46.742188 78.839844 C 49.902344 82.003906 51.644531 86.207031 51.644531 90.679688 C 51.644531 93.171875 50.945312 95.484375 50.914062 95.589844 C 50.636719 96.5 50.277344 97.394531 49.84375 98.246094 L 51.488281 106.542969 C 51.519531 106.707031 51.46875 106.878906 51.351562 106.996094 C 51.234375 107.117188 51.066406 107.167969 50.902344 107.140625 L 42.40625 105.652344 C 41.507812 106.105469 40.5625 106.476562 39.597656 106.757812 C 39.503906 106.785156 37.273438 107.425781 34.898438 107.425781 Z M 34.898438 107.425781 " fill-opacity="1" fill-rule="nonzero"/></g><g clip-path="url(#849f67de3d)"><path fill="#007aff" d="M 23.332031 92.542969 C 24.046875 94.019531 24.761719 95.496094 25.476562 96.972656 C 26.191406 98.449219 26.957031 99.902344 27.632812 101.386719 C 27.855469 101.882812 28.433594 102.175781 28.941406 102.246094 C 29.484375 102.320312 30.050781 102.167969 30.445312 101.75 C 32.191406 99.917969 33.851562 97.976562 35.492188 96.039062 C 37.136719 94.09375 38.8125 92.167969 40.476562 90.238281 C 41.496094 89.058594 42.503906 87.859375 43.457031 86.621094 C 43.359375 86.746094 43.261719 86.871094 43.167969 86.996094 C 43.695312 86.308594 44.234375 85.628906 44.765625 84.949219 C 45.351562 84.210938 45.890625 83.433594 46.441406 82.664062 C 46.753906 82.234375 46.628906 81.492188 46.242188 81.136719 C 45.863281 80.792969 45.164062 80.597656 44.714844 80.941406 C 44 81.484375 43.261719 82.019531 42.582031 82.609375 C 41.984375 83.132812 41.390625 83.652344 40.800781 84.175781 C 39.589844 85.25 38.460938 86.402344 37.359375 87.582031 C 35.183594 89.914062 33.066406 92.320312 31.109375 94.847656 C 30.472656 95.664062 29.84375 96.484375 29.222656 97.304688 C 28.660156 98.050781 28.140625 98.804688 27.632812 99.589844 C 28.660156 99.589844 29.695312 99.589844 30.722656 99.589844 C 29.785156 98.25 28.933594 96.839844 28.039062 95.480469 C 27.140625 94.097656 26.242188 92.730469 25.347656 91.363281 C 25.011719 90.851562 24.300781 90.589844 23.75 90.941406 C 23.1875 91.3125 23.046875 91.953125 23.332031 92.542969 Z M 23.332031 92.542969 " fill-opacity="1" fill-rule="nonzero"/></g><g fill="#25d366" fill-opacity="1"><g transform="translate(63.969479, 91.335523)"><g><path d="M 0.40625 0 L 0.40625 -3.96875 L 5.40625 -17.859375 L 0.890625 -17.859375 L 0.890625 -21.875 L 10.03125 -21.875 L 10.03125 -18.0625 L 4.921875 -4.03125 L 9.8125 -4.03125 L 9.8125 0 Z M 0.40625 0 "/></g></g></g><g fill="#25d366" fill-opacity="1"><g transform="translate(77.362691, 91.335523)"><g><path d="M 0.375 0 L 2.5 -21.875 L 9.90625 -21.875 L 12 0 L 7.84375 0 L 7.53125 -3.546875 L 4.890625 -3.546875 L 4.640625 0 Z M 5.21875 -7.03125 L 7.203125 -7.03125 L 6.234375 -18.15625 L 6.03125 -18.15625 Z M 5.21875 -7.03125 "/></g></g></g><g fill="#25d366" fill-opacity="1"><g transform="translate(92.665384, 91.335523)"><g><path d="M 0.96875 -21.875 L 6.75 -21.875 C 8.5 -21.875 9.742188 -21.304688 10.484375 -20.171875 C 11.234375 -19.046875 11.609375 -17.398438 11.609375 -15.234375 C 11.609375 -13.054688 11.273438 -11.414062 10.609375 -10.3125 C 9.953125 -9.207031 8.769531 -8.65625 7.0625 -8.65625 L 5.265625 -8.65625 L 5.265625 0 L 0.96875 0 Z M 5.53125 -12.609375 C 6.050781 -12.609375 6.4375 -12.703125 6.6875 -12.890625 C 6.9375 -13.085938 7.097656 -13.367188 7.171875 -13.734375 C 7.242188 -14.097656 7.28125 -14.625 7.28125 -15.3125 C 7.28125 -16.226562 7.175781 -16.890625 6.96875 -17.296875 C 6.769531 -17.703125 6.363281 -17.90625 5.75 -17.90625 L 5.265625 -17.90625 L 5.265625 -12.609375 Z M 5.53125 -12.609375 "/></g></g></g><g fill="#25d366" fill-opacity="1"><g transform="translate(107.637099, 91.335523)"><g><path d="M 0.96875 -21.875 L 6.75 -21.875 C 8.5 -21.875 9.742188 -21.304688 10.484375 -20.171875 C 11.234375 -19.046875 11.609375 -17.398438 11.609375 -15.234375 C 11.609375 -13.054688 11.273438 -11.414062 10.609375 -10.3125 C 9.953125 -9.207031 8.769531 -8.65625 7.0625 -8.65625 L 5.265625 -8.65625 L 5.265625 0 L 0.96875 0 Z M 5.53125 -12.609375 C 6.050781 -12.609375 6.4375 -12.703125 6.6875 -12.890625 C 6.9375 -13.085938 7.097656 -13.367188 7.171875 -13.734375 C 7.242188 -14.097656 7.28125 -14.625 7.28125 -15.3125 C 7.28125 -16.226562 7.175781 -16.890625 6.96875 -17.296875 C 6.769531 -17.703125 6.363281 -17.90625 5.75 -17.90625 L 5.265625 -17.90625 L 5.265625 -12.609375 Z M 5.53125 -12.609375 "/></g></g></g><g fill="#25d366" fill-opacity="1"><g transform="translate(122.60881, 91.335523)"><g><path d="M 3.609375 0 L 3.609375 -7.203125 L 0.125 -21.875 L 4.453125 -21.875 L 5.671875 -14.46875 L 6.90625 -21.875 L 11.234375 -21.875 L 7.75 -7.203125 L 7.75 0 Z M 3.609375 0 "/></g></g></g><g fill="#007aff" fill-opacity="1"><g transform="translate(64.194247, 112.086863)"><g><path d="M 0.703125 0 L 0.703125 -16.03125 L 7.125 -16.03125 L 7.125 -12.90625 L 3.9375 -12.90625 L 3.9375 -10.359375 L 6.953125 -10.359375 L 6.953125 -7.28125 L 3.9375 -7.28125 L 3.9375 0 Z M 0.703125 0 "/></g></g></g><g fill="#007aff" fill-opacity="1"><g transform="translate(73.802352, 112.086863)"><g><path d="M 0.703125 0 L 0.703125 -16.03125 L 3.921875 -16.03125 L 3.921875 -2.71875 L 7.21875 -2.71875 L 7.21875 0 Z M 0.703125 0 "/></g></g></g><g fill="#007aff" fill-opacity="1"><g transform="translate(83.37314, 112.086863)"><g><path d="M 4.53125 0.15625 C 3.238281 0.15625 2.253906 -0.238281 1.578125 -1.03125 C 0.910156 -1.820312 0.578125 -2.929688 0.578125 -4.359375 L 0.578125 -12 C 0.578125 -13.375 0.910156 -14.410156 1.578125 -15.109375 C 2.253906 -15.816406 3.238281 -16.171875 4.53125 -16.171875 C 5.820312 -16.171875 6.800781 -15.816406 7.46875 -15.109375 C 8.144531 -14.410156 8.484375 -13.375 8.484375 -12 L 8.484375 -4.359375 C 8.484375 -2.921875 8.144531 -1.804688 7.46875 -1.015625 C 6.800781 -0.234375 5.820312 0.15625 4.53125 0.15625 Z M 4.53125 -2.796875 C 4.820312 -2.796875 5.015625 -2.921875 5.109375 -3.171875 C 5.210938 -3.421875 5.265625 -3.769531 5.265625 -4.21875 L 5.265625 -12.046875 C 5.265625 -12.398438 5.21875 -12.6875 5.125 -12.90625 C 5.03125 -13.125 4.835938 -13.234375 4.546875 -13.234375 C 4.015625 -13.234375 3.75 -12.828125 3.75 -12.015625 L 3.75 -4.203125 C 3.75 -3.734375 3.800781 -3.378906 3.90625 -3.140625 C 4.019531 -2.910156 4.226562 -2.796875 4.53125 -2.796875 Z M 4.53125 -2.796875 "/></g></g></g><g fill="#007aff" fill-opacity="1"><g transform="translate(94.604245, 112.086863)"><g><path d="M 1.953125 0 L 0.25 -16.03125 L 3.375 -16.03125 L 4.265625 -5.90625 L 5.171875 -16.03125 L 8.15625 -16.03125 L 9.015625 -5.90625 L 9.875 -16.03125 L 13.046875 -16.03125 L 11.28125 0 L 7.4375 0 L 6.640625 -7.71875 L 5.875 0 Z M 1.953125 0 "/></g></g></g></svg>