<svg xmlns="http://www.w3.org/2000/svg" xmlns:xlink="http://www.w3.org/1999/xlink" width="228" zoomAndPan="magnify" viewBox="0 0 171 46.499999" height="62" preserveAspectRatio="xMidYMid meet" version="1.0"><defs><g/><clipPath id="5ee7ec3eda"><path d="M 3.863281 1.398438 L 47.074219 1.398438 L 47.074219 44.609375 L 3.863281 44.609375 Z M 3.863281 1.398438 " clip-rule="nonzero"/></clipPath><clipPath id="76f9ab4dc7"><path d="M 25.46875 1.398438 C 13.535156 1.398438 3.863281 11.070312 3.863281 23.003906 C 3.863281 34.933594 13.535156 44.609375 25.46875 44.609375 C 37.402344 44.609375 47.074219 34.933594 47.074219 23.003906 C 47.074219 11.070312 37.402344 1.398438 25.46875 1.398438 Z M 25.46875 1.398438 " clip-rule="nonzero"/></clipPath><clipPath id="d1ed543876"><path d="M 10.25 7.785156 L 39.1875 7.785156 L 39.1875 36.722656 L 10.25 36.722656 Z M 10.25 7.785156 " clip-rule="nonzero"/></clipPath><clipPath id="e2318af320"><path d="M 14.5 13.566406 L 35 13.566406 L 35 32.117188 L 14.5 32.117188 Z M 14.5 13.566406 " clip-rule="nonzero"/></clipPath></defs><g clip-path="url(#5ee7ec3eda)"><g clip-path="url(#76f9ab4dc7)"><path fill="#25d366" d="M 3.863281 1.398438 L 47.074219 1.398438 L 47.074219 44.609375 L 3.863281 44.609375 Z M 3.863281 1.398438 " fill-opacity="1" fill-rule="nonzero"/></g></g><g clip-path="url(#d1ed543876)"><path fill="#ffffff" d="M 24.792969 36.871094 C 20.910156 36.871094 17.257812 35.359375 14.507812 32.613281 C 11.761719 29.867188 10.25 26.214844 10.25 22.328125 C 10.25 18.441406 11.761719 14.789062 14.507812 12.042969 C 17.257812 9.296875 20.910156 7.785156 24.792969 7.785156 C 28.679688 7.785156 32.332031 9.296875 35.078125 12.042969 C 37.824219 14.789062 39.339844 18.441406 39.339844 22.328125 C 39.339844 24.492188 38.730469 26.5 38.703125 26.589844 C 38.460938 27.382812 38.148438 28.160156 37.773438 28.898438 L 39.199219 36.105469 C 39.226562 36.25 39.183594 36.394531 39.082031 36.5 C 38.980469 36.601562 38.835938 36.648438 38.695312 36.625 L 31.3125 35.332031 C 30.53125 35.722656 29.714844 36.046875 28.875 36.292969 C 28.792969 36.316406 26.855469 36.871094 24.792969 36.871094 Z M 24.792969 36.871094 " fill-opacity="1" fill-rule="nonzero"/></g><g clip-path="url(#e2318af320)"><path fill="#007aff" d="M 14.746094 23.941406 C 15.367188 25.222656 15.988281 26.503906 16.609375 27.789062 C 17.230469 29.070312 17.898438 30.332031 18.484375 31.621094 C 18.675781 32.050781 19.179688 32.308594 19.617188 32.367188 C 20.089844 32.429688 20.585938 32.296875 20.925781 31.9375 C 22.441406 30.347656 23.882812 28.660156 25.308594 26.980469 C 26.738281 25.289062 28.191406 23.617188 29.636719 21.941406 C 30.523438 20.914062 31.398438 19.875 32.226562 18.800781 C 32.140625 18.90625 32.058594 19.015625 31.972656 19.125 C 32.433594 18.527344 32.898438 17.9375 33.363281 17.34375 C 33.871094 16.703125 34.339844 16.027344 34.816406 15.363281 C 35.089844 14.988281 34.980469 14.34375 34.644531 14.035156 C 34.316406 13.734375 33.707031 13.566406 33.320312 13.863281 C 32.699219 14.335938 32.058594 14.800781 31.464844 15.3125 C 30.949219 15.765625 30.429688 16.21875 29.917969 16.675781 C 28.867188 17.605469 27.886719 18.605469 26.929688 19.632812 C 25.042969 21.660156 23.203125 23.75 21.5 25.941406 C 20.949219 26.652344 20.402344 27.363281 19.863281 28.078125 C 19.375 28.722656 18.921875 29.378906 18.484375 30.058594 C 19.375 30.058594 20.273438 30.058594 21.164062 30.058594 C 20.351562 28.898438 19.613281 27.671875 18.832031 26.492188 C 18.054688 25.292969 17.277344 24.105469 16.496094 22.914062 C 16.207031 22.472656 15.589844 22.246094 15.113281 22.550781 C 14.625 22.871094 14.5 23.429688 14.746094 23.941406 Z M 14.746094 23.941406 " fill-opacity="1" fill-rule="nonzero"/></g><g fill="#25d366" fill-opacity="1"><g transform="translate(49.42812, 32.166025)"><g><path d="M 0.390625 0 L 0.390625 -3.75 L 5.09375 -16.875 L 0.84375 -16.875 L 0.84375 -20.671875 L 9.484375 -20.671875 L 9.484375 -17.0625 L 4.640625 -3.796875 L 9.265625 -3.796875 L 9.265625 0 Z M 0.390625 0 "/></g></g></g><g fill="#25d366" fill-opacity="1"><g transform="translate(60.445628, 32.166025)"><g><path d="M 0.359375 0 L 2.359375 -20.671875 L 9.359375 -20.671875 L 11.328125 0 L 7.40625 0 L 7.125 -3.34375 L 4.625 -3.34375 L 4.375 0 Z M 4.9375 -6.640625 L 6.8125 -6.640625 L 5.890625 -17.15625 L 5.703125 -17.15625 Z M 4.9375 -6.640625 "/></g></g></g><g fill="#25d366" fill-opacity="1"><g transform="translate(73.267182, 32.166025)"><g><path d="M 0.921875 -20.671875 L 6.375 -20.671875 C 8.03125 -20.671875 9.207031 -20.132812 9.90625 -19.0625 C 10.613281 -18 10.96875 -16.441406 10.96875 -14.390625 C 10.96875 -12.335938 10.65625 -10.789062 10.03125 -9.75 C 9.40625 -8.707031 8.285156 -8.1875 6.671875 -8.1875 L 4.984375 -8.1875 L 4.984375 0 L 0.921875 0 Z M 5.21875 -11.90625 C 5.71875 -11.90625 6.082031 -12 6.3125 -12.1875 C 6.550781 -12.375 6.703125 -12.640625 6.765625 -12.984375 C 6.835938 -13.328125 6.875 -13.820312 6.875 -14.46875 C 6.875 -15.332031 6.773438 -15.957031 6.578125 -16.34375 C 6.390625 -16.726562 6.007812 -16.921875 5.4375 -16.921875 L 4.984375 -16.921875 L 4.984375 -11.90625 Z M 5.21875 -11.90625 "/></g></g></g><g fill="#25d366" fill-opacity="1"><g transform="translate(85.776044, 32.166025)"><g><path d="M 0.921875 -20.671875 L 6.375 -20.671875 C 8.03125 -20.671875 9.207031 -20.132812 9.90625 -19.0625 C 10.613281 -18 10.96875 -16.441406 10.96875 -14.390625 C 10.96875 -12.335938 10.65625 -10.789062 10.03125 -9.75 C 9.40625 -8.707031 8.285156 -8.1875 6.671875 -8.1875 L 4.984375 -8.1875 L 4.984375 0 L 0.921875 0 Z M 5.21875 -11.90625 C 5.71875 -11.90625 6.082031 -12 6.3125 -12.1875 C 6.550781 -12.375 6.703125 -12.640625 6.765625 -12.984375 C 6.835938 -13.328125 6.875 -13.820312 6.875 -14.46875 C 6.875 -15.332031 6.773438 -15.957031 6.578125 -16.34375 C 6.390625 -16.726562 6.007812 -16.921875 5.4375 -16.921875 L 4.984375 -16.921875 L 4.984375 -11.90625 Z M 5.21875 -11.90625 "/></g></g></g><g fill="#25d366" fill-opacity="1"><g transform="translate(98.284905, 32.166025)"><g><path d="M 3.421875 0 L 3.421875 -6.8125 L 0.125 -20.671875 L 4.203125 -20.671875 L 5.359375 -13.671875 L 6.515625 -20.671875 L 10.609375 -20.671875 L 7.3125 -6.8125 L 7.3125 0 Z M 3.421875 0 "/></g></g></g><g fill="#25d366" fill-opacity="1"><g transform="translate(110.168358, 32.166025)"><g/></g></g><g fill="#007aff" fill-opacity="1"><g transform="translate(116.955891, 32.166025)"><g><path d="M 0.921875 0 L 0.921875 -20.671875 L 9.1875 -20.671875 L 9.1875 -16.65625 L 5.078125 -16.65625 L 5.078125 -13.359375 L 8.96875 -13.359375 L 8.96875 -9.390625 L 5.078125 -9.390625 L 5.078125 0 Z M 0.921875 0 "/></g></g></g><g fill="#007aff" fill-opacity="1"><g transform="translate(127.708806, 32.166025)"><g><path d="M 0.921875 0 L 0.921875 -20.671875 L 5.046875 -20.671875 L 5.046875 -3.515625 L 9.3125 -3.515625 L 9.3125 0 Z M 0.921875 0 "/></g></g></g><g fill="#007aff" fill-opacity="1"><g transform="translate(138.413621, 32.166025)"><g><path d="M 5.84375 0.1875 C 4.175781 0.1875 2.910156 -0.316406 2.046875 -1.328125 C 1.179688 -2.347656 0.75 -3.78125 0.75 -5.625 L 0.75 -15.46875 C 0.75 -17.25 1.179688 -18.59375 2.046875 -19.5 C 2.910156 -20.40625 4.175781 -20.859375 5.84375 -20.859375 C 7.507812 -20.859375 8.773438 -20.40625 9.640625 -19.5 C 10.515625 -18.59375 10.953125 -17.25 10.953125 -15.46875 L 10.953125 -5.625 C 10.953125 -3.769531 10.515625 -2.335938 9.640625 -1.328125 C 8.773438 -0.316406 7.507812 0.1875 5.84375 0.1875 Z M 5.84375 -3.609375 C 6.21875 -3.609375 6.46875 -3.769531 6.59375 -4.09375 C 6.71875 -4.414062 6.78125 -4.863281 6.78125 -5.4375 L 6.78125 -15.546875 C 6.78125 -15.992188 6.71875 -16.359375 6.59375 -16.640625 C 6.476562 -16.921875 6.238281 -17.0625 5.875 -17.0625 C 5.1875 -17.0625 4.84375 -16.539062 4.84375 -15.5 L 4.84375 -5.40625 C 4.84375 -4.820312 4.910156 -4.375 5.046875 -4.0625 C 5.191406 -3.757812 5.457031 -3.609375 5.84375 -3.609375 Z M 5.84375 -3.609375 "/></g></g></g><g fill="#007aff" fill-opacity="1"><g transform="translate(151.259238, 32.166025)"><g><path d="M 2.53125 0 L 0.3125 -20.671875 L 4.359375 -20.671875 L 5.515625 -7.625 L 6.671875 -20.671875 L 10.515625 -20.671875 L 11.625 -7.625 L 12.734375 -20.671875 L 16.8125 -20.671875 L 14.5625 0 L 9.59375 0 L 8.5625 -9.96875 L 7.578125 0 Z M 2.53125 0 "/></g></g></g></svg>